<svg width="445" height="87" viewBox="0 0 445 87" fill="none" xmlns="http://www.w3.org/2000/svg">
<rect width="445" height="87" fill="#F5F5F5"/>
<path d="M43.15 0.625V11.75H13.4V36.5H39.525V47.5H13.4V85H0.149994V0.625H43.15ZM128.04 53.625C128.04 60.625 126.832 66.625 124.415 71.625C119.665 81.625 110.832 86.625 97.915 86.625C95.9983 86.625 94.1233 86.5 92.29 86.25C76.7067 84.0833 68.915 73.0417 68.915 53.125V0.625H82.165V53.625C82.165 55.4583 82.2483 57.2083 82.415 58.875C83.5817 69.625 88.8733 75 98.29 75C109.29 74.9167 114.832 67.5833 114.915 53V0.625H128.04V53.625ZM151.43 0.625H202.18V11.75H183.18V85H169.93V11.75H151.43V0.625ZM284.82 53.625C284.82 60.625 283.612 66.625 281.195 71.625C276.445 81.625 267.612 86.625 254.695 86.625C252.778 86.625 250.903 86.5 249.07 86.25C233.487 84.0833 225.695 73.0417 225.695 53.125V0.625H238.945V53.625C238.945 55.4583 239.028 57.2083 239.195 58.875C240.362 69.625 245.653 75 255.07 75C266.07 74.9167 271.612 67.5833 271.695 53V0.625H284.82V53.625ZM331.585 85H318.335V0.625C325.002 0.375 332.377 0.25 340.46 0.25C344.21 0.25 347.627 0.541667 350.71 1.125C363.877 3.79167 370.46 11.5417 370.46 24.375C370.46 26.4583 370.252 28.5 369.835 30.5C368.085 39.3333 363.043 45.4583 354.71 48.875L366.585 72.75C367.668 74.8333 369.293 75.9583 371.46 76.125H372.835L373.46 85.75C371.627 86.25 369.668 86.5 367.585 86.5C362.002 86.4167 357.752 83.375 354.835 77.375L342.335 51.375H340.71H331.585V85ZM340.585 11.25C338.418 11.25 335.418 11.3333 331.585 11.5V40.25H341.335C343.668 40.25 345.793 39.9583 347.71 39.375C353.793 37.375 356.835 32.875 356.835 25.875C356.835 23.875 356.627 22.0833 356.21 20.5C354.71 14.3333 349.502 11.25 340.585 11.25ZM444.725 73.875V85H400.475V0.625H443.6V11.75H413.725V35.875H439.975V46.875H413.725V73.875H444.725Z" fill="url(#paint0_linear_0_1)"/>
<defs>
<linearGradient id="paint0_linear_0_1" x1="221" y1="-37" x2="221" y2="80" gradientUnits="userSpaceOnUse">
<stop stop-color="#898989"/>
<stop offset="1" stop-color="#939292" stop-opacity="0"/>
</linearGradient>
</defs>
</svg>
