<svg width="329" height="95" viewBox="0 0 329 95" fill="none" xmlns="http://www.w3.org/2000/svg">
<rect width="329" height="95" fill="#F5F5F5"/>
<g filter="url(#filter0_d_0_1)">
<path d="M33.0294 80H31.9044L26.9044 64.375H28.5606L32.5919 77.4062L36.6856 64.5312L38.2481 64.4375L42.3106 77.4062L46.4044 64.375H47.9356L42.7481 80H41.6231L37.4044 66.7812L33.0294 80ZM53.1769 80H51.5831V64.375H53.1769V80ZM53.6456 59.8438C53.6456 59.9688 53.6248 60.1042 53.5831 60.25C53.4373 60.8958 53.0415 61.2188 52.3956 61.2188C52.3123 61.2188 52.2185 61.2083 52.1144 61.1875C51.4894 61.0417 51.1769 60.5938 51.1769 59.8438C51.1769 59.7188 51.1977 59.5833 51.2394 59.4375C51.3852 58.8125 51.7706 58.5 52.3956 58.5C52.5206 58.5 52.6352 58.5104 52.7394 58.5312C53.3435 58.6979 53.6456 59.1354 53.6456 59.8438ZM61.9494 80.2188C61.6369 80.2188 61.3452 80.1771 61.0744 80.0938C59.866 79.7396 59.2619 78.7812 59.2619 77.2188V57.3438H60.8869V77.0312C60.9077 78.2396 61.3556 78.8646 62.2306 78.9062C62.5431 78.9062 62.9181 78.8125 63.3556 78.625L63.7619 79.8438C63.116 80.0938 62.5119 80.2188 61.9494 80.2188ZM70.2219 80.2188C69.9094 80.2188 69.6177 80.1771 69.3469 80.0938C68.1385 79.7396 67.5344 78.7812 67.5344 77.2188V57.3438H69.1594V77.0312C69.1802 78.2396 69.6281 78.8646 70.5031 78.9062C70.8156 78.9062 71.1906 78.8125 71.6281 78.625L72.0344 79.8438C71.3885 80.0938 70.7844 80.2188 70.2219 80.2188ZM97.4544 71.4688C97.4544 73.7188 96.996 75.625 96.0794 77.1875C94.8919 79.2292 93.2044 80.25 91.0169 80.25C89.246 80.25 87.6002 79.8229 86.0794 78.9688V57.3438H87.7044V66.7812C88.746 65.0312 90.1835 64.1458 92.0169 64.125C93.121 64.125 94.1106 64.4688 94.9856 65.1562C96.6315 66.4479 97.4544 68.5521 97.4544 71.4688ZM87.7044 78.0625C88.7252 78.5833 89.7773 78.8542 90.8606 78.875C91.8398 78.875 92.694 78.5833 93.4231 78C94.9856 76.7708 95.7669 74.5938 95.7669 71.4688C95.7669 69.8646 95.4544 68.5208 94.8294 67.4375C94.0585 66.125 93.0273 65.4688 91.7356 65.4688C91.0481 65.4688 90.4127 65.6562 89.8294 66.0312C88.4127 66.9062 87.7044 68.5104 87.7044 70.8438V78.0625ZM112.258 79.0312C110.654 79.8229 109.112 80.2292 107.633 80.25C106.3 80.25 105.133 79.9271 104.133 79.2812C102.091 77.9271 101.071 75.5521 101.071 72.1562C101.071 70.1979 101.446 68.5312 102.196 67.1562C103.3 65.1354 104.925 64.125 107.071 64.125C110.571 64.25 112.404 66.75 112.571 71.625V72.3125H102.789C102.81 73.6667 103.019 74.8333 103.414 75.8125C104.248 77.8333 105.727 78.8438 107.852 78.8438C109.081 78.8438 110.373 78.5104 111.727 77.8438L112.258 79.0312ZM107.071 65.4688C106.55 65.4688 106.06 65.5625 105.602 65.75C103.998 66.4583 103.081 68.1979 102.852 70.9688L110.914 70.9375C110.914 70.1667 110.841 69.4479 110.696 68.7812C110.196 66.5729 108.987 65.4688 107.071 65.4688ZM133.928 79.4375C133.032 79.9583 132.168 80.2292 131.334 80.25C130.897 80.25 130.48 80.1771 130.084 80.0312C128.689 79.4896 127.991 78.1979 127.991 76.1562V65.7188H125.397V64.375H127.991V60.1562H129.584V64.375H133.459V65.7188H129.584V75.7812C129.584 75.9688 129.595 76.1667 129.616 76.375C129.761 78.0417 130.47 78.875 131.741 78.875C132.241 78.875 132.814 78.7083 133.459 78.375L133.928 79.4375ZM149.701 78.9375L149.794 80.1875C149.524 80.2292 149.263 80.25 149.013 80.25C147.451 80.2292 146.669 79.2396 146.669 77.2812V69.4062C146.669 68.8229 146.607 68.2917 146.482 67.8125C146.065 66.2292 145.076 65.4375 143.513 65.4375C142.826 65.4375 142.18 65.6354 141.576 66.0312C140.159 66.9479 139.451 68.5938 139.451 70.9688V80H137.826V57.3438H139.451L139.419 66.9688C139.44 66.9271 139.471 66.875 139.513 66.8125C140.471 65.0208 141.888 64.125 143.763 64.125C144.451 64.125 145.076 64.2396 145.638 64.4688C147.409 65.1771 148.294 66.7812 148.294 69.2812V77.0938C148.294 77.5312 148.326 77.8958 148.388 78.1875C148.534 78.7708 148.971 79.0208 149.701 78.9375ZM164.379 79.0312C162.775 79.8229 161.234 80.2292 159.754 80.25C158.421 80.25 157.254 79.9271 156.254 79.2812C154.213 77.9271 153.192 75.5521 153.192 72.1562C153.192 70.1979 153.567 68.5312 154.317 67.1562C155.421 65.1354 157.046 64.125 159.192 64.125C162.692 64.25 164.525 66.75 164.692 71.625V72.3125H154.911C154.931 73.6667 155.14 74.8333 155.536 75.8125C156.369 77.8333 157.848 78.8438 159.973 78.8438C161.202 78.8438 162.494 78.5104 163.848 77.8438L164.379 79.0312ZM159.192 65.4688C158.671 65.4688 158.181 65.5625 157.723 65.75C156.119 66.4583 155.202 68.1979 154.973 70.9688L163.036 70.9375C163.036 70.1667 162.963 69.4479 162.817 68.7812C162.317 66.5729 161.109 65.4688 159.192 65.4688ZM170.746 80H169.121V64.3438H170.621L170.652 67.125C170.756 66.8958 170.871 66.6771 170.996 66.4688C171.891 64.9062 173.11 64.125 174.652 64.125C174.944 64.125 175.298 64.1771 175.714 64.2812L175.527 65.7812C175.131 65.6562 174.756 65.5938 174.402 65.5938C173.694 65.5938 173.048 65.8333 172.464 66.3125C171.319 67.2708 170.746 68.7812 170.746 70.8438V80ZM188.799 79.0312C187.195 79.8229 185.654 80.2292 184.174 80.25C182.841 80.25 181.674 79.9271 180.674 79.2812C178.633 77.9271 177.612 75.5521 177.612 72.1562C177.612 70.1979 177.987 68.5312 178.737 67.1562C179.841 65.1354 181.466 64.125 183.612 64.125C187.112 64.25 188.945 66.75 189.112 71.625V72.3125H179.331C179.351 73.6667 179.56 74.8333 179.956 75.8125C180.789 77.8333 182.268 78.8438 184.393 78.8438C185.622 78.8438 186.914 78.5104 188.268 77.8438L188.799 79.0312ZM183.612 65.4688C183.091 65.4688 182.601 65.5625 182.143 65.75C180.539 66.4583 179.622 68.1979 179.393 70.9688L187.456 70.9375C187.456 70.1667 187.383 69.4479 187.237 68.7812C186.737 66.5729 185.529 65.4688 183.612 65.4688ZM210.376 65.7188H206.219V80H204.594V65.7188H202.282V64.375H204.594V61.375C204.594 60.5417 204.74 59.8021 205.032 59.1562C205.636 57.7812 206.709 57.0938 208.251 57.0938C209.23 57.0938 210.188 57.3958 211.126 58L210.501 59.125C209.73 58.7083 209.032 58.4896 208.407 58.4688C207.136 58.6146 206.407 59.7083 206.219 61.75V64.375H210.376V65.7188ZM218.554 78.875C219.471 78.875 220.273 78.625 220.961 78.125C222.461 77.0208 223.211 75.0521 223.211 72.2188C223.211 70.8854 223.034 69.7083 222.679 68.6875C221.929 66.5625 220.586 65.5 218.648 65.5C217.669 65.5 216.804 65.8021 216.054 66.4062C214.638 67.5729 213.929 69.5104 213.929 72.2188C213.929 73.5312 214.106 74.6979 214.461 75.7188C215.231 77.8229 216.596 78.875 218.554 78.875ZM218.679 64.125C219.971 64.125 221.096 64.4479 222.054 65.0938C223.971 66.4271 224.929 68.8021 224.929 72.2188C224.929 74.0521 224.586 75.6458 223.898 77C222.752 79.1667 220.961 80.25 218.523 80.25C217.336 80.25 216.284 79.9896 215.367 79.4688C213.284 78.2396 212.242 75.8229 212.242 72.2188C212.242 70.3021 212.627 68.6562 213.398 67.2812C214.565 65.1771 216.325 64.125 218.679 64.125ZM231.233 80H229.608V64.3438H231.108L231.139 67.125C231.244 66.8958 231.358 66.6771 231.483 66.4688C232.379 64.9062 233.598 64.125 235.139 64.125C235.431 64.125 235.785 64.1771 236.202 64.2812L236.014 65.7812C235.619 65.6562 235.244 65.5938 234.889 65.5938C234.181 65.5938 233.535 65.8333 232.952 66.3125C231.806 67.2708 231.233 68.7812 231.233 70.8438V80ZM258.372 64.375H259.997L253.778 81.125C253.507 81.8542 253.236 82.5 252.966 83.0625C251.799 85.4375 250.33 86.625 248.559 86.625C247.622 86.625 246.632 86.375 245.591 85.875L246.153 84.625C247.028 85.0208 247.82 85.2292 248.528 85.25C249.195 85.25 249.799 85.0104 250.341 84.5312C251.091 83.8646 251.945 82.2708 252.903 79.75L247.309 64.375H249.028L253.716 77.5938L258.372 64.375ZM268.082 78.875C268.999 78.875 269.801 78.625 270.488 78.125C271.988 77.0208 272.738 75.0521 272.738 72.2188C272.738 70.8854 272.561 69.7083 272.207 68.6875C271.457 66.5625 270.113 65.5 268.176 65.5C267.196 65.5 266.332 65.8021 265.582 66.4062C264.165 67.5729 263.457 69.5104 263.457 72.2188C263.457 73.5312 263.634 74.6979 263.988 75.7188C264.759 77.8229 266.124 78.875 268.082 78.875ZM268.207 64.125C269.499 64.125 270.624 64.4479 271.582 65.0938C273.499 66.4271 274.457 68.8021 274.457 72.2188C274.457 74.0521 274.113 75.6458 273.426 77C272.28 79.1667 270.488 80.25 268.051 80.25C266.863 80.25 265.811 79.9896 264.894 79.4688C262.811 78.2396 261.769 75.8229 261.769 72.2188C261.769 70.3021 262.155 68.6562 262.926 67.2812C264.092 65.1771 265.853 64.125 268.207 64.125ZM290.854 80.25C290.479 80.25 290.146 80.2083 289.854 80.125C288.813 79.8542 288.261 78.9062 288.198 77.2812C288.136 77.4062 288.073 77.5312 288.011 77.6562C287.031 79.3854 285.615 80.25 283.761 80.25C283.115 80.25 282.511 80.1562 281.948 79.9688C280.031 79.3229 279.073 77.6979 279.073 75.0938V64.375H280.698V74.9688C280.698 75.5938 280.771 76.1667 280.917 76.6875C281.396 78.2083 282.406 78.9688 283.948 78.9688C284.698 78.9688 285.386 78.75 286.011 78.3125C287.386 77.3333 288.073 75.6979 288.073 73.4062V64.375H289.698V76.6562C289.698 77.0729 289.729 77.4375 289.792 77.75C289.938 78.5625 290.417 78.9688 291.229 78.9688C291.417 78.9688 291.584 78.9583 291.729 78.9375L291.792 80.1562C291.459 80.2188 291.146 80.25 290.854 80.25ZM297.533 78.7812C297.533 78.8854 297.523 79 297.502 79.125C297.377 79.8333 296.96 80.1875 296.252 80.1875C296.189 80.1875 296.106 80.1771 296.002 80.1562C295.335 80.0521 295.002 79.5938 295.002 78.7812C295.002 78.6771 295.012 78.5729 295.033 78.4688C295.158 77.7604 295.575 77.4062 296.283 77.4062C296.366 77.4062 296.46 77.4167 296.564 77.4375C297.21 77.5625 297.533 78.0104 297.533 78.7812Z" fill="#510000"/>
</g>
<path d="M20.7033 33.959V39H0.652542V0.767578H20.1936V5.80859H6.65645V16.7402H18.551V21.7246H6.65645V33.959H20.7033ZM42.9472 34.2988C45.5149 34.2988 48.4225 33.3548 51.6699 31.4668L53.9355 35.8281C49.8951 38.3958 45.9492 39.6986 42.0976 39.7363C38.4726 39.7363 35.3574 38.5846 32.7519 36.2812C28.7871 32.7318 26.8047 27.3132 26.8047 20.0254C26.8047 14.1725 28.1074 9.43359 30.7129 5.80859C33.5449 1.95703 37.3398 0.03125 42.0976 0.03125C43.1549 0.03125 44.1933 0.125651 45.2129 0.314453C50.0084 1.29622 53.1803 4.33594 54.7285 9.43359L48.8945 10.9062C47.5351 7.24349 45.2317 5.37435 41.9843 5.29883C40.625 5.29883 39.3789 5.63867 38.2461 6.31836C34.8854 8.35742 33.205 12.9076 33.205 19.9688C33.205 22.9141 33.5826 25.4818 34.3379 27.6719C35.886 32.0898 38.7558 34.2988 42.9472 34.2988ZM88.7536 19.9688C88.7536 24.6888 87.8851 28.7103 86.1482 32.0332C83.4294 37.1686 79.1625 39.7363 73.3474 39.7363C69.6846 39.7363 66.5883 38.6979 64.0583 36.6211C60.018 33.2604 57.9978 27.7285 57.9978 20.0254C57.9978 15.1165 58.9607 10.9251 60.8864 7.45117C63.6807 2.50456 67.891 0.03125 73.5173 0.03125C77.1423 0.03125 80.2009 1.06966 82.6931 3.14648C86.7335 6.58268 88.7536 12.1901 88.7536 19.9688ZM64.3982 19.9688C64.3982 22.6875 64.7002 25.0853 65.3044 27.1621C66.6638 32.0332 69.3448 34.4688 73.3474 34.4688C75.1221 34.4688 76.6892 33.9212 78.0486 32.8262C80.9183 30.485 82.3532 26.2181 82.3532 20.0254C82.3532 17.2311 82.0512 14.7578 81.447 12.6055C80.0499 7.73438 77.3877 5.29883 73.4607 5.29883C71.5349 5.29883 69.8545 5.95964 68.4197 7.28125C65.7387 9.77344 64.3982 14.0026 64.3982 19.9688ZM125.101 19.9688C125.101 24.6888 124.233 28.7103 122.496 32.0332C119.777 37.1686 115.51 39.7363 109.695 39.7363C106.032 39.7363 102.936 38.6979 100.406 36.6211C96.3654 33.2604 94.3452 27.7285 94.3452 20.0254C94.3452 15.1165 95.3081 10.9251 97.2339 7.45117C100.028 2.50456 104.238 0.03125 109.865 0.03125C113.49 0.03125 116.548 1.06966 119.041 3.14648C123.081 6.58268 125.101 12.1901 125.101 19.9688ZM100.746 19.9688C100.746 22.6875 101.048 25.0853 101.652 27.1621C103.011 32.0332 105.692 34.4688 109.695 34.4688C111.47 34.4688 113.037 33.9212 114.396 32.8262C117.266 30.485 118.701 26.2181 118.701 20.0254C118.701 17.2311 118.399 14.7578 117.794 12.6055C116.397 7.73438 113.735 5.29883 109.808 5.29883C107.882 5.29883 106.202 5.95964 104.767 7.28125C102.086 9.77344 100.746 14.0026 100.746 19.9688ZM135.62 39H130.07L134.884 0.767578H141.794L148.365 24.9531C148.516 25.6328 148.761 26.8034 149.101 28.4648C149.29 29.3711 149.422 30.0508 149.497 30.5039C150.215 27.4076 150.668 25.4818 150.857 24.7266L157.654 0.767578H164.337L168.812 39H162.865L160.656 16.457C160.542 15.3242 160.353 12.8887 160.089 9.15039C158.956 13.5306 158.314 16.0039 158.163 16.5703L151.933 37.584L146.382 37.7539L140.491 16.3438C140.227 15.362 139.642 13.0397 138.736 9.37695C138.66 10.1699 138.528 11.416 138.339 13.1152C138.15 14.6634 138.018 15.7962 137.943 16.5137L135.62 39ZM190.983 0.767578H213.979V5.80859H205.37V39H199.366V5.80859H190.983V0.767578ZM225.235 39H219.231V0.767578C222.252 0.654297 225.594 0.597656 229.256 0.597656C230.956 0.597656 232.504 0.729818 233.901 0.994141C239.867 2.20247 242.85 5.71419 242.85 11.5293C242.85 12.4733 242.756 13.3984 242.567 14.3047C241.774 18.3073 239.489 21.0827 235.713 22.6309L241.094 33.4492C241.585 34.3932 242.321 34.903 243.303 34.9785H243.926L244.209 39.3398C243.379 39.5664 242.491 39.6797 241.547 39.6797C239.017 39.6419 237.092 38.2637 235.77 35.5449L230.106 23.7637H229.37H225.235V39ZM229.313 5.58203C228.331 5.58203 226.972 5.61979 225.235 5.69531V18.7227H229.653C230.71 18.7227 231.673 18.5905 232.542 18.3262C235.298 17.4199 236.676 15.3809 236.676 12.209C236.676 11.3027 236.582 10.4909 236.393 9.77344C235.713 6.97917 233.353 5.58203 229.313 5.58203ZM270.701 33.959V39H250.651V0.767578H270.192V5.80859H256.655V16.7402H268.549V21.7246H256.655V33.959H270.701ZM298.779 33.959V39H278.729V0.767578H298.27V5.80859H284.732V16.7402H296.627V21.7246H284.732V33.959H298.779ZM328.217 28.2949C328.217 31.1647 327.405 33.6003 325.781 35.6016C323.553 38.3581 320.381 39.7363 316.265 39.7363C312.376 39.7363 308.676 38.4902 305.164 35.998L307.543 31.6934C310.337 33.5059 313.282 34.431 316.379 34.4688C317.285 34.4688 318.153 34.2988 318.984 33.959C321.061 33.0527 322.099 31.3724 322.099 28.918C322.099 28.1628 321.948 27.4642 321.646 26.8223C321.004 25.4251 319.343 24.1035 316.662 22.8574C313.452 21.3848 311.545 20.4596 310.941 20.082C307.467 17.9674 305.73 14.9089 305.73 10.9062C305.73 7.9987 306.712 5.52539 308.676 3.48633C311.017 1.18294 313.981 0.03125 317.568 0.03125C318.739 0.03125 319.909 0.182292 321.08 0.484375C324.554 1.42839 326.895 3.41081 328.103 6.43164L323.572 8.86719C323.459 8.64062 323.327 8.41406 323.176 8.1875C321.778 6.14844 319.834 5.12891 317.342 5.12891C316.473 5.12891 315.661 5.29883 314.906 5.63867C312.829 6.50716 311.791 8.14974 311.791 10.5664C311.791 11.2839 311.942 11.9447 312.244 12.5488C312.848 13.9082 314.51 15.2109 317.228 16.457C320.4 17.8919 322.288 18.7982 322.892 19.1758C326.442 21.3281 328.217 24.3678 328.217 28.2949Z" fill="#510000"/>
<defs>
<filter id="filter0_d_0_1" x="22.9044" y="57.0938" width="278.629" height="37.5312" filterUnits="userSpaceOnUse" color-interpolation-filters="sRGB">
<feFlood flood-opacity="0" result="BackgroundImageFix"/>
<feColorMatrix in="SourceAlpha" type="matrix" values="0 0 0 0 0 0 0 0 0 0 0 0 0 0 0 0 0 0 127 0" result="hardAlpha"/>
<feOffset dy="4"/>
<feGaussianBlur stdDeviation="2"/>
<feComposite in2="hardAlpha" operator="out"/>
<feColorMatrix type="matrix" values="0 0 0 0 0 0 0 0 0 0 0 0 0 0 0 0 0 0 0.25 0"/>
<feBlend mode="normal" in2="BackgroundImageFix" result="effect1_dropShadow_0_1"/>
<feBlend mode="normal" in="SourceGraphic" in2="effect1_dropShadow_0_1" result="shape"/>
</filter>
</defs>
</svg>
